<svg xmlns="http://www.w3.org/2000/svg" width="22" height="18" viewBox="0 0 22 18">
    <g fill="none" fill-rule="evenodd">
        <g fill="#1D4648" fill-rule="nonzero">
            <g>
                <path d="M17.77 0C20.105 0 22 1.894 22 4.23v9.026c0 2.337-1.894 4.231-4.23 4.231H4.23c-2.336 0-4.23-1.894-4.23-4.23V4.23C0 1.894 1.894 0 4.23 0zm0 1.692H4.23c-1.401 0-2.538 1.137-2.538 2.539v9.025c0 1.402 1.137 2.539 2.539 2.539h13.538c1.402 0 2.539-1.137 2.539-2.539V4.231c0-1.402-1.137-2.539-2.539-2.539zm-.973 4.07c.225.364.14.832-.182 1.097l-.094.066-3.3 2.035c-1.286.793-2.89.837-4.211.132l-.23-.132-3.301-2.035c-.398-.245-.521-.766-.276-1.164.225-.365.681-.499 1.062-.33l.102.054 3.3 2.035c.76.467 1.702.5 2.487.1l.178-.1 3.3-2.035c.399-.245.92-.122 1.165.276z" transform="translate(-90.000000, -58.000000) translate(90.000000, 58.000000)"/>
            </g>
        </g>
    </g>
</svg>
