<svg xmlns="http://www.w3.org/2000/svg" width="23" height="23" viewBox="0 0 23 23">
    <style type="text/css">
        path {
         fill: #1d4648;
        }
        path:hover {
         opacity: 0.9;
        }
    </style>
    <defs>
        <filter id="isu70ovica">
            <feColorMatrix in="SourceGraphic" values="0 0 0 0 0.074510 0 0 0 0 0.227451 0 0 0 0 0.235294 0 0 0 1.000000 0"/>
        </filter>
    </defs>
    <g fill="none" fill-rule="evenodd">
        <g transform="translate(-1230.000000, -48.000000)">
            <g>
                <path class="test" fill="#000" fill-rule="nonzero" d="M11.5 0C5.15 0 0 5.15 0 11.5c0 5.389 3.71 9.898 8.713 11.145-.053-.155-.088-.335-.088-.558V20.12H7.18c-.787 0-1.487-.338-1.826-.967-.376-.698-.442-1.767-1.375-2.42-.277-.218-.066-.466.253-.433.59.167 1.078.571 1.538 1.171.458.601.674.737 1.53.737.415 0 1.036-.024 1.62-.116.315-.798.858-1.533 1.522-1.88-3.83-.394-5.657-2.299-5.657-4.886 0-1.113.474-2.19 1.28-3.098-.264-.9-.597-2.738.102-3.437 1.723 0 2.765 1.117 3.015 1.419.858-.294 1.801-.461 2.792-.461.993 0 1.94.167 2.8.463.248-.3 1.29-1.421 3.017-1.421.702.7.366 2.545.098 3.444.801.906 1.273 1.98 1.273 3.091 0 2.585-1.825 4.49-5.649 4.885 1.053.55 1.82 2.092 1.82 3.255v2.62c0 .1-.022.171-.033.257C19.78 20.773 23 16.518 23 11.5 23 5.15 17.85 0 11.5 0z" transform="translate(1230.000000, 48.000000)"/>
            </g>
        </g>
    </g>
</svg>
