<svg xmlns="http://www.w3.org/2000/svg" width="22" height="22" viewBox="0 0 22 22">
    <style type="text/css">
        path {
        fill: #1d4648;
        }
        path:hover {
        opacity: 0.9;
        }
    </style>
    <g fill="none" fill-rule="evenodd">
        <g fill="#133A3C" fill-rule="nonzero">
            <g>
                <path d="M2.5 0C1.133 0 0 1.133 0 2.5v17C0 20.867 1.133 22 2.5 22h17c1.367 0 2.5-1.133 2.5-2.5v-17C22 1.133 20.867 0 19.5 0h-17zm0 2h17c.285 0 .5.215.5.5v17c0 .285-.215.5-.5.5h-17c-.285 0-.5-.215-.5-.5v-17c0-.285.215-.5.5-.5zm2.938 1.719c-.95 0-1.72.77-1.72 1.719 0 .949.77 1.718 1.72 1.718.949 0 1.718-.77 1.718-1.718 0-.95-.77-1.72-1.718-1.72zm9.03 4.562c-1.433 0-2.386.785-2.78 1.531h-.063V8.5H8.812V18h2.938v-4.688c0-1.238.246-2.437 1.781-2.437 1.512 0 1.531 1.398 1.531 2.5V18H18v-5.219c0-2.554-.543-4.5-3.531-4.5zM4 8.5V18h2.969V8.5H4z" transform="translate(-1328.000000, -49.000000) translate(1328.000000, 49.000000)"/>
            </g>
        </g>
    </g>
</svg>
