<svg xmlns="http://www.w3.org/2000/svg" width="20" height="16" viewBox="0 0 20 16">
    <g fill="none" fill-rule="evenodd" stroke-linecap="round" stroke-linejoin="round">
        <g fill="#1D4648" fill-rule="nonzero">
            <g>
                <path d="M11.84.17l.098.085 5.807 5.807.01.01c.018.019.036.039.053.06l-.063-.07c.03.03.056.06.08.093l-.08-.093c.034.034.065.07.092.108.012.016.022.032.033.049l.022.038.027.054c.008.015.014.03.02.047l.006.013.012.035c.008.024.015.05.02.075l.01.044c.004.026.008.052.01.078l.002.028.001.046-.001.046-.002.03.003-.076c0 .051-.004.1-.013.15l-.01.052c-.006.023-.012.046-.02.068l-.012.035-.006.016-.014.034c-.01.023-.021.045-.033.067l-.02.033c-.01.017-.022.034-.033.05l-.01.014-.006.008-.01.012c-.017.022-.035.043-.054.062h.001l-.015.015-5.807 5.807c-.34.34-.891.34-1.231 0-.31-.31-.338-.793-.085-1.134l.085-.098 4.319-4.32H.871c-.481 0-.871-.39-.871-.87 0-.442.328-.806.753-.864l.118-.008h14.155l-4.32-4.32c-.34-.34-.34-.89 0-1.23.31-.31.794-.338 1.135-.085z" transform="translate(-494.000000, -521.000000) translate(495.000000, 522.000000)"/>
            </g>
        </g>
    </g>
</svg>
