<svg xmlns="http://www.w3.org/2000/svg" width="22" height="18"><path d="M17.77 0A4.23 4.23 0 0 1 22 4.23v9.026a4.23 4.23 0 0 1-4.23 4.231H4.23A4.23 4.23 0 0 1 0 13.257V4.23A4.23 4.23 0 0 1 4.23 0zm0 1.692H4.23a2.54 2.54 0 0 0-2.538 2.539v9.025a2.54 2.54 0 0 0 2.539 2.539h13.538a2.54 2.54 0 0 0 2.539-2.539V4.231a2.54 2.54 0 0 0-2.539-2.539zm-.973 4.07a.846.846 0 0 1-.182 1.097l-.094.066-3.3 2.035a4.23 4.23 0 0 1-4.211.132l-.23-.132-3.301-2.035a.846.846 0 0 1 .786-1.494l.102.054 3.3 2.035c.76.467 1.702.5 2.487.1l.178-.1 3.3-2.035a.847.847 0 0 1 1.165.276z" fill="#1D4648" fill-rule="nonzero"/></svg>