<svg xmlns="http://www.w3.org/2000/svg" width="23" height="23"><style>path:hover{opacity:.9}</style><defs><filter id="isu70ovica"><feColorMatrix in="SourceGraphic" values="0 0 0 0 0.074510 0 0 0 0 0.227451 0 0 0 0 0.235294 0 0 0 1.000000 0"/></filter></defs><path class="test" fill="#000" fill-rule="nonzero" d="M11.5 0C5.15 0 0 5.15 0 11.5c0 5.389 3.71 9.898 8.713 11.145a1.691 1.691 0 0 1-.088-.558V20.12H7.18c-.787 0-1.487-.338-1.826-.967-.376-.698-.442-1.767-1.375-2.42-.277-.218-.066-.466.253-.433.59.167 1.078.571 1.538 1.171.458.601.674.737 1.53.737.415 0 1.036-.024 1.62-.116.315-.798.858-1.533 1.522-1.88-3.83-.394-5.657-2.299-5.657-4.886 0-1.113.474-2.19 1.28-3.098-.264-.9-.597-2.738.102-3.437 1.723 0 2.765 1.117 3.015 1.419a8.617 8.617 0 0 1 2.792-.461c.993 0 1.94.167 2.8.463.248-.3 1.29-1.421 3.017-1.421.702.7.366 2.545.098 3.444.801.906 1.273 1.98 1.273 3.091 0 2.585-1.825 4.49-5.649 4.885 1.053.55 1.82 2.092 1.82 3.255v2.62c0 .1-.022.171-.033.257 4.48-1.57 7.7-5.825 7.7-10.843C23 5.15 17.85 0 11.5 0z" style="fill:#1d4648"/></svg>