<svg xmlns="http://www.w3.org/2000/svg" width="20" height="16"><path d="m12.84 1.17.098.085 5.807 5.807.01.01c.018.019.036.039.053.06l-.063-.07c.03.03.056.06.08.093l-.08-.093c.034.034.065.07.092.108.012.016.022.032.033.049l.022.038.027.054c.008.015.014.03.02.047l.006.013.012.035c.008.024.015.05.02.075l.01.044c.004.026.008.052.01.078l.002.028.001.046-.001.046-.002.03.003-.076c0 .051-.004.1-.013.15l-.01.052c-.006.023-.012.046-.02.068l-.012.035-.006.016-.014.034a.832.832 0 0 1-.033.067l-.02.033c-.01.017-.022.034-.033.05l-.01.014-.006.008-.01.012a.648.648 0 0 1-.054.062h.001l-.015.015-5.807 5.807a.87.87 0 0 1-1.316-1.134l.085-.098 4.319-4.32H1.871a.87.87 0 0 1-.118-1.734l.118-.008h14.155l-4.32-4.32a.872.872 0 0 1 1.135-1.315z" fill="#1D4648" fill-rule="nonzero" stroke-linecap="round" stroke-linejoin="round"/></svg>