<svg xmlns="http://www.w3.org/2000/svg" width="22" height="18" viewBox="0 0 22 18">
    <style type="text/css">
        path {
        fill: #1d4648;
        }
        path:hover {
        opacity: 0.9;
        }
    </style>
    <defs>
        <filter id="f5cyk6sxpa">
            <feColorMatrix in="SourceGraphic" values="0 0 0 0 0.074510 0 0 0 0 0.227451 0 0 0 0 0.235294 0 0 0 1.000000 0"/>
        </filter>
    </defs>
    <g fill="none" fill-rule="evenodd">
        <g transform="translate(-1182.000000, -50.000000)">
            <g>
                <path fill="#000" fill-rule="nonzero" d="M22.001 2.116c-.81.36-1.68.602-2.593.711.933-.558 1.648-1.443 1.985-2.497-.872.517-1.838.893-2.867 1.096C17.703.548 16.53 0 15.232 0c-2.493 0-4.514 2.021-4.514 4.513 0 .354.04.7.117 1.029C7.084 5.354 3.76 3.556 1.532.825c-.388.667-.61 1.442-.61 2.27 0 1.566.796 2.947 2.007 3.756-.74-.023-1.436-.226-2.045-.564v.057c0 2.187 1.555 4.011 3.621 4.425-.378.103-.778.158-1.19.158-.29 0-.573-.028-.848-.08.574 1.793 2.241 3.099 4.216 3.135-1.544 1.21-3.49 1.933-5.606 1.933-.364 0-.723-.022-1.077-.064 1.998 1.28 4.37 2.028 6.919 2.028 8.303 0 12.841-6.878 12.841-12.843 0-.195-.004-.39-.012-.584.882-.637 1.648-1.431 2.253-2.336z" transform="translate(1182.000000, 50.000000)"/>
            </g>
        </g>
    </g>
</svg>
