<svg xmlns="http://www.w3.org/2000/svg" width="22" height="18"><style>path:hover{opacity:.9}</style><defs><filter id="f5cyk6sxpa"><feColorMatrix in="SourceGraphic" values="0 0 0 0 0.074510 0 0 0 0 0.227451 0 0 0 0 0.235294 0 0 0 1.000000 0"/></filter></defs><path fill="#000" fill-rule="nonzero" d="M22.001 2.116c-.81.36-1.68.602-2.593.711A4.52 4.52 0 0 0 21.393.33a9.054 9.054 0 0 1-2.867 1.096 4.514 4.514 0 0 0-7.691 4.116A12.817 12.817 0 0 1 1.532.825a4.499 4.499 0 0 0-.61 2.27c0 1.566.796 2.947 2.007 3.756a4.494 4.494 0 0 1-2.045-.564v.057a4.514 4.514 0 0 0 3.621 4.425 4.526 4.526 0 0 1-2.038.078 4.517 4.517 0 0 0 4.216 3.135A9.057 9.057 0 0 1 0 15.851a12.783 12.783 0 0 0 6.919 2.028c8.303 0 12.841-6.878 12.841-12.843 0-.195-.004-.39-.012-.584a9.182 9.182 0 0 0 2.253-2.336z" style="fill:#1d4648"/></svg>